<svg width="24" height="24" viewBox="0 0 24 24" fill="none" xmlns="http://www.w3.org/2000/svg">
<path d="M9 9.99998C9.39053 9.60946 10.0237 9.60946 10.4142 9.99998L12 11.5858L13.5858 9.99998C13.9763 9.60946 14.6095 9.60946 15 9.99998C15.3905 10.3905 15.3905 11.0237 15 11.4142L13.4142 13L15 14.5858C15.3905 14.9763 15.3905 15.6095 15 16C14.6095 16.3905 13.9763 16.3905 13.5858 16L12 14.4142L10.4142 16C10.0237 16.3905 9.39052 16.3905 9 16C8.60947 15.6095 8.60947 14.9763 9 14.5858L10.5858 13L9 11.4142C8.60948 11.0237 8.60948 10.3905 9 9.99998Z" fill="black"/>
<path fill-rule="evenodd" clip-rule="evenodd" d="M4 4.99998H6V3.74998C6 3.19769 6.44772 2.74998 7 2.74998C7.55229 2.74998 8 3.19769 8 3.74998V4.99998H16V3.74998C16 3.19769 16.4477 2.74998 17 2.74998C17.5523 2.74998 18 3.19769 18 3.74998V4.99998H20C21.1046 4.99998 22 5.89541 22 6.99998V19C22 20.1046 21.1046 21 20 21H4C2.89543 21 2 20.1046 2 19V6.99998C2 5.89541 2.89543 4.99998 4 4.99998ZM4 19L4 6.99998H20V19H4Z" fill="black"/>
</svg>
